NadyezhdaSLTwo.ufo
<glyph name="exclam" format="1">
  <advance width="1233"/>
  <unicode hex="0021"/>
  <outline>
    <contour>
      <point x="516" y="1493" type="line"/>
      <point x="719" y="1493" type="line"/>
      <point x="719" y="838" type="line"/>
      <point x="698" y="481" type="line"/>
      <point x="537" y="481" type="line"/>
      <point x="516" y="838" type="line"/>
    </contour>
    <contour>
      <point x="516" y="254" type="line"/>
      <point x="719" y="254" type="line"/>
      <point x="719" y="0" type="line"/>
      <point x="516" y="0" type="line"/>
    </contour>
  </outline>
</glyph>
<glyph name="dollar" format="1">
  <advance width="1233"/>
  <unicode hex="0024"/>
  <outline>
    <contour>
      <point x="692" y="580" type="qcurve"/>
      <point x="692" y="146" type="line"/>
      <point x="802" y="149"/>
      <point x="926" y="265"/>
      <point x="926" y="365" type="qcurve"/>
      <point x="926" y="458"/>
      <point x="814" y="561"/>
    </contour>
    <contour>
      <point x="592" y="770" type="qcurve"/>
      <point x="592" y="1183" type="line"/>
      <point x="488" y="1179"/>
      <point x="371" y="1067"/>
      <point x="371" y="973" type="qcurve"/>
      <point x="371" y="887"/>
      <point x="480" y="787"/>
    </contour>
    <contour>
      <point x="692" y="-301" type="line"/>
      <point x="592" y="-301" type="line"/>
      <point x="591" y="0" type="line"/>
      <point x="489" y="5"/>
      <point x="288" y="51"/>
      <point x="190" y="92" type="qcurve"/>
      <point x="190" y="272" type="line"/>
      <point x="290" y="210"/>
      <point x="493" y="144"/>
      <point x="592" y="142" type="qcurve"/>
      <point x="592" y="600" type="line"/>
      <point x="392" y="631"/>
      <point x="190" y="813"/>
      <point x="190" y="963" type="qcurve"/>
      <point x="190" y="1120"/>
      <point x="401" y="1307"/>
      <point x="592" y="1321" type="qcurve"/>
      <point x="592" y="1556" type="line"/>
      <point x="692" y="1556" type="line"/>
      <point x="693" y="1321" type="line"/>
      <point x="772" y="1316"/>
      <point x="934" y="1286"/>
      <point x="1018" y="1260" type="qcurve"/>
      <point x="1018" y="1087" type="line"/>
      <point x="933" y="1130"/>
      <point x="772" y="1177"/>
      <point x="692" y="1181" type="qcurve"/>
      <point x="692" y="750" type="line"/>
      <point x="898" y="719"/>
      <point x="1114" y="525"/>
      <point x="1114" y="371" type="qcurve"/>
      <point x="1114" y="217"/>
      <point x="881" y="11"/>
      <point x="693" y="2" type="qcurve"/>
    </contour>
  </outline>
</glyph>
<glyph name="percent" format="1">
  <advance width="1233"/>
  <unicode hex="0025"/>
  <outline>
    <contour>
      <point x="696" y="319" type="qcurve"/>
      <point x="696" y="241"/>
      <point x="801" y="135"/>
      <point x="879" y="135" type="qcurve"/>
      <point x="956" y="135"/>
      <point x="1063" y="242"/>
      <point x="1063" y="319" type="qcurve"/>
      <point x="1063" y="396"/>
      <point x="955" y="504"/>
      <point x="879" y="504" type="qcurve"/>
      <point x="801" y="504"/>
      <point x="696" y="398"/>
    </contour>
    <contour>
      <point x="561" y="319" type="qcurve"/>
      <point x="561" y="454"/>
      <point x="745" y="639"/>
      <point x="879" y="639" type="qcurve"/>
      <point x="943" y="639"/>
      <point x="1058" y="591"/>
      <point x="1104" y="545" type="qcurve"/>
      <point x="1150" y="498"/>
      <point x="1200" y="382"/>
      <point x="1200" y="319" type="qcurve"/>
      <point x="1200" y="186"/>
      <point x="1014" y="0"/>
      <point x="879" y="0" type="qcurve"/>
      <point x="743" y="0"/>
      <point x="561" y="183"/>
    </contour>
    <contour>
      <point x="121" y="465" type="line"/>
      <point x="86" y="561" type="line"/>
      <point x="1128" y="979" type="line"/>
      <point x="1169" y="883" type="line"/>
    </contour>
    <contour>
      <point x="168" y="1112" type="qcurve"/>
      <point x="168" y="1033"/>
      <point x="273" y="928"/>
      <point x="352" y="928" type="qcurve"/>
      <point x="429" y="928"/>
      <point x="537" y="1035"/>
      <point x="537" y="1112" type="qcurve"/>
      <point x="537" y="1189"/>
      <point x="429" y="1296"/>
      <point x="352" y="1296" type="qcurve"/>
      <point x="275" y="1296"/>
      <point x="168" y="1190"/>
    </contour>
    <contour>
      <point x="33" y="1112" type="qcurve"/>
      <point x="33" y="1247"/>
      <point x="217" y="1432"/>
      <point x="352" y="1432" type="qcurve"/>
      <point x="416" y="1432"/>
      <point x="533" y="1384"/>
      <point x="578" y="1339" type="qcurve"/>
      <point x="623" y="1294"/>
      <point x="672" y="1177"/>
      <point x="672" y="1112" type="qcurve"/>
      <point x="672" y="978"/>
      <point x="486" y="793"/>
      <point x="352" y="793" type="qcurve"/>
      <point x="217" y="793"/>
      <point x="33" y="977"/>
    </contour>
  </outline>
</glyph>
<glyph name="parenright" format="1">
  <advance width="1233"/>
  <unicode hex="0029"/>
  <outline>
    <contour>
      <point x="348" y="1554" type="qcurve"/>
      <point x="508" y="1554" type="line"/>
      <point x="659" y="1318"/>
      <point x="807" y="866"/>
      <point x="807" y="643" type="qcurve"/>
      <point x="807" y="418"/>
      <point x="659" y="-34"/>
      <point x="508" y="-270" type="qcurve"/>
      <point x="348" y="-270" type="line"/>
      <point x="481" y="-38"/>
      <point x="612" y="416"/>
      <point x="612" y="643" type="qcurve"/>
      <point x="612" y="871"/>
      <point x="481" y="1325"/>
    </contour>
  </outline>
</glyph>
<glyph name="asterisk" format="1">
  <advance width="1233"/>
  <unicode hex="002A"/>
  <outline>
    <contour>
      <point x="1067" y="1247" type="line"/>
      <point x="709" y="1053" type="line"/>
      <point x="1067" y="858" type="line"/>
      <point x="1010" y="760" type="line"/>
      <point x="674" y="963" type="line"/>
      <point x="674" y="586" type="line"/>
      <point x="559" y="586" type="line"/>
      <point x="559" y="963" type="line"/>
      <point x="223" y="760" type="line"/>
      <point x="166" y="858" type="line"/>
      <point x="524" y="1053" type="line"/>
      <point x="166" y="1247" type="line"/>
      <point x="223" y="1346" type="line"/>
      <point x="559" y="1143" type="line"/>
      <point x="559" y="1520" type="line"/>
      <point x="674" y="1520" type="line"/>
      <point x="674" y="1143" type="line"/>
      <point x="1010" y="1346" type="line"/>
    </contour>
  </outline>
</glyph>
<glyph name="zero" format="1">
  <advance width="1233"/>
  <unicode hex="0030"/>
  <outline>
    <contour>
      <point x="483" y="750" type="qcurve"/>
      <point x="483" y="805"/>
      <point x="560" y="885"/>
      <point x="614" y="885" type="qcurve"/>
      <point x="670" y="885"/>
      <point x="750" y="805"/>
      <point x="750" y="750" type="qcurve"/>
      <point x="750" y="694"/>
      <point x="671" y="616"/>
      <point x="614" y="616" type="qcurve"/>
      <point x="558" y="616"/>
      <point x="483" y="692"/>
    </contour>
    <contour>
      <point x="616" y="1360" type="qcurve"/>
      <point x="475" y="1360"/>
      <point x="336" y="1056"/>
      <point x="336" y="745" type="qcurve"/>
      <point x="336" y="435"/>
      <point x="475" y="131"/>
      <point x="616" y="131" type="qcurve"/>
      <point x="758" y="131"/>
      <point x="897" y="435"/>
      <point x="897" y="745" type="qcurve"/>
      <point x="897" y="1056"/>
      <point x="758" y="1360"/>
    </contour>
    <contour>
      <point x="616" y="1520" type="qcurve"/>
      <point x="855" y="1520"/>
      <point x="1100" y="1128"/>
      <point x="1100" y="745" type="qcurve"/>
      <point x="1100" y="363"/>
      <point x="855" y="-29"/>
      <point x="616" y="-29" type="qcurve"/>
      <point x="377" y="-29"/>
      <point x="133" y="363"/>
      <point x="133" y="745" type="qcurve"/>
      <point x="133" y="1128"/>
      <point x="377" y="1520"/>
    </contour>
  </outline>
</glyph>
<glyph name="three" format="1">
  <advance width="1233"/>
  <unicode hex="0033"/>
  <outline>
    <contour>
      <point x="776" y="799" type="qcurve"/>
      <point x="923" y="760"/>
      <point x="1079" y="561"/>
      <point x="1079" y="412" type="qcurve"/>
      <point x="1079" y="206"/>
      <point x="802" y="-29"/>
      <point x="557" y="-29" type="qcurve"/>
      <point x="454" y="-29"/>
      <point x="240" y="9"/>
      <point x="137" y="45" type="qcurve"/>
      <point x="137" y="246" type="line"/>
      <point x="239" y="193"/>
      <point x="437" y="141"/>
      <point x="535" y="141" type="qcurve"/>
      <point x="701" y="141"/>
      <point x="879" y="291"/>
      <point x="879" y="432" type="qcurve"/>
      <point x="879" y="562"/>
      <point x="701" y="715"/>
      <point x="549" y="715" type="qcurve"/>
      <point x="395" y="715" type="line"/>
      <point x="395" y="881" type="line"/>
      <point x="549" y="881" type="line"/>
      <point x="688" y="881"/>
      <point x="844" y="1003"/>
      <point x="844" y="1112" type="qcurve"/>
      <point x="844" y="1227"/>
      <point x="699" y="1350"/>
      <point x="565" y="1350" type="qcurve"/>
      <point x="476" y="1350"/>
      <point x="286" y="1310"/>
      <point x="182" y="1270" type="qcurve"/>
      <point x="182" y="1456" type="line"/>
      <point x="303" y="1488"/>
      <point x="492" y="1520"/>
      <point x="565" y="1520" type="qcurve"/>
      <point x="783" y="1520"/>
      <point x="1044" y="1301"/>
      <point x="1044" y="1120" type="qcurve"/>
      <point x="1044" y="997"/>
      <point x="907" y="833"/>
    </contour>
  </outline>
</glyph>
<glyph name="eight" format="1">
  <advance width="1233"/>
  <unicode hex="0038"/>
  <outline>
    <contour>
      <point x="616" y="709" type="qcurve"/>
      <point x="481" y="709"/>
      <point x="334" y="558"/>
      <point x="334" y="420" type="qcurve"/>
      <point x="334" y="282"/>
      <point x="483" y="129"/>
      <point x="616" y="129" type="qcurve"/>
      <point x="752" y="129"/>
      <point x="899" y="280"/>
      <point x="899" y="420" type="qcurve"/>
      <point x="899" y="557"/>
      <point x="750" y="709"/>
    </contour>
    <contour>
      <point x="440" y="793" type="qcurve"/>
      <point x="311" y="826"/>
      <point x="166" y="1006"/>
      <point x="166" y="1133" type="qcurve"/>
      <point x="166" y="1311"/>
      <point x="408" y="1520"/>
      <point x="616" y="1520" type="qcurve"/>
      <point x="825" y="1520"/>
      <point x="1067" y="1311"/>
      <point x="1067" y="1133" type="qcurve"/>
      <point x="1067" y="1006"/>
      <point x="922" y="826"/>
      <point x="793" y="793" type="qcurve"/>
      <point x="943" y="760"/>
      <point x="1102" y="560"/>
      <point x="1102" y="401" type="qcurve"/>
      <point x="1102" y="199"/>
      <point x="844" y="-29"/>
      <point x="616" y="-29" type="qcurve"/>
      <point x="388" y="-29"/>
      <point x="131" y="198"/>
      <point x="131" y="399" type="qcurve"/>
      <point x="131" y="559"/>
      <point x="290" y="760"/>
    </contour>
    <contour>
      <point x="367" y="1114" type="qcurve"/>
      <point x="367" y="994"/>
      <point x="495" y="868"/>
      <point x="616" y="868" type="qcurve"/>
      <point x="738" y="868"/>
      <point x="866" y="994"/>
      <point x="866" y="1114" type="qcurve"/>
      <point x="866" y="1236"/>
      <point x="739" y="1364"/>
      <point x="616" y="1364" type="qcurve"/>
      <point x="495" y="1364"/>
      <point x="367" y="1235"/>
    </contour>
  </outline>
</glyph>
<glyph name="nine" format="1">
  <advance width="1233"/>
  <unicode hex="0039"/>
  <outline>
    <contour>
      <point x="596" y="662" type="qcurve"/>
      <point x="725" y="662"/>
      <point x="872" y="848"/>
      <point x="872" y="1012" type="qcurve"/>
      <point x="872" y="1176"/>
      <point x="725" y="1362"/>
      <point x="596" y="1362" type="qcurve"/>
      <point x="462" y="1362"/>
      <point x="326" y="1185"/>
      <point x="326" y="1012" type="qcurve"/>
      <point x="326" y="838"/>
      <point x="461" y="662"/>
    </contour>
    <contour>
      <point x="236" y="31" type="qcurve"/>
      <point x="236" y="217" type="line"/>
      <point x="299" y="180"/>
      <point x="441" y="141"/>
      <point x="518" y="141" type="qcurve"/>
      <point x="710" y="141"/>
      <point x="907" y="430"/>
      <point x="907" y="711" type="qcurve"/>
      <point x="860" y="611"/>
      <point x="690" y="504"/>
      <point x="580" y="504" type="qcurve"/>
      <point x="364" y="504"/>
      <point x="127" y="770"/>
      <point x="127" y="1014" type="qcurve"/>
      <point x="127" y="1255"/>
      <point x="370" y="1520"/>
      <point x="592" y="1520" type="qcurve"/>
      <point x="852" y="1520"/>
      <point x="1094" y="1146"/>
      <point x="1094" y="745" type="qcurve"/>
      <point x="1094" y="368"/>
      <point x="803" y="-29"/>
      <point x="526" y="-29" type="qcurve"/>
      <point x="453" y="-29"/>
      <point x="305" y="2"/>
    </contour>
  </outline>
</glyph>
<glyph name="colon" format="1">
  <advance width="1233"/>
  <unicode hex="003A"/>
  <outline>
    <contour>
      <point x="489" y="1063" type="line"/>
      <point x="741" y="1063" type="line"/>
      <point x="741" y="760" type="line"/>
      <point x="489" y="760" type="line"/>
    </contour>
    <contour>
      <point x="489" y="305" type="line"/>
      <point x="741" y="305" type="line"/>
      <point x="741" y="0" type="line"/>
      <point x="489" y="0" type="line"/>
    </contour>
  </outline>
</glyph>
<glyph name="question" format="1">
  <advance width="1233"/>
  <unicode hex="003F"/>
  <outline>
    <contour>
      <point x="684" y="401" type="line"/>
      <point x="494" y="401" type="line"/>
      <point x="494" y="555" type="line"/>
      <point x="494" y="653"/>
      <point x="555" y="790"/>
      <point x="639" y="872" type="qcurve"/>
      <point x="729" y="961" type="line"/>
      <point x="791" y="1020"/>
      <point x="838" y="1108"/>
      <point x="838" y="1157" type="qcurve"/>
      <point x="838" y="1246"/>
      <point x="707" y="1356"/>
      <point x="598" y="1356" type="qcurve"/>
      <point x="520" y="1356"/>
      <point x="342" y="1287"/>
      <point x="244" y="1219" type="qcurve"/>
      <point x="244" y="1407" type="line"/>
      <point x="338" y="1464"/>
      <point x="529" y="1520"/>
      <point x="633" y="1520" type="qcurve"/>
      <point x="819" y="1520"/>
      <point x="1040" y="1328"/>
      <point x="1040" y="1167" type="qcurve"/>
      <point x="1040" y="1091"/>
      <point x="973" y="960"/>
      <point x="879" y="868" type="qcurve"/>
      <point x="791" y="782" type="line"/>
      <point x="722" y="716"/>
      <point x="684" y="632"/>
      <point x="684" y="571" type="qcurve"/>
      <point x="684" y="524" type="line"/>
    </contour>
    <contour>
      <point x="487" y="254" type="line"/>
      <point x="690" y="254" type="line"/>
      <point x="690" y="0" type="line"/>
      <point x="487" y="0" type="line"/>
    </contour>
  </outline>
</glyph>
<glyph name="C" format="1">
  <advance width="1233"/>
  <unicode hex="0043"/>
  <outline>
    <contour>
      <point x="1073" y="53" type="line"/>
      <point x="996" y="12"/>
      <point x="834" y="-29"/>
      <point x="743" y="-29" type="qcurve"/>
      <point x="456" y="-29"/>
      <point x="139" y="377"/>
      <point x="139" y="745" type="qcurve"/>
      <point x="139" y="1111"/>
      <point x="458" y="1520"/>
      <point x="743" y="1520" type="qcurve"/>
      <point x="834" y="1520"/>
      <point x="996" y="1479"/>
      <point x="1073" y="1438" type="qcurve"/>
      <point x="1073" y="1231" type="line"/>
      <point x="999" y="1292"/>
      <point x="829" y="1356"/>
      <point x="743" y="1356" type="qcurve"/>
      <point x="546" y="1356"/>
      <point x="350" y="1052"/>
      <point x="350" y="745" type="qcurve"/>
      <point x="350" y="439"/>
      <point x="546" y="135"/>
      <point x="743" y="135" type="qcurve"/>
      <point x="831" y="135"/>
      <point x="1000" y="199"/>
      <point x="1073" y="260" type="qcurve"/>
    </contour>
  </outline>
</glyph>
<glyph name="O" format="1">
  <advance width="1233"/>
  <unicode hex="004F"/>
  <outline>
    <contour>
      <point x="905" y="745" type="qcurve"/>
      <point x="905" y="1074"/>
      <point x="770" y="1356"/>
      <point x="616" y="1356" type="qcurve"/>
      <point x="463" y="1356"/>
      <point x="328" y="1074"/>
      <point x="328" y="745" type="qcurve"/>
      <point x="328" y="417"/>
      <point x="463" y="135"/>
      <point x="616" y="135" type="qcurve"/>
      <point x="770" y="135"/>
      <point x="905" y="416"/>
    </contour>
    <contour>
      <point x="1116" y="745" type="qcurve"/>
      <point x="1116" y="355"/>
      <point x="869" y="-29"/>
      <point x="616" y="-29" type="qcurve"/>
      <point x="363" y="-29"/>
      <point x="117" y="353"/>
      <point x="117" y="745" type="qcurve"/>
      <point x="117" y="1136"/>
      <point x="364" y="1520"/>
      <point x="616" y="1520" type="qcurve"/>
      <point x="869" y="1520"/>
      <point x="1116" y="1136"/>
    </contour>
  </outline>
</glyph>
<glyph name="P" format="1">
  <advance width="1233"/>
  <unicode hex="0050"/>
  <outline>
    <contour>
      <point x="399" y="1327" type="line"/>
      <point x="399" y="766" type="line"/>
      <point x="633" y="766" type="line"/>
      <point x="773" y="766"/>
      <point x="930" y="914"/>
      <point x="930" y="1047" type="qcurve"/>
      <point x="930" y="1180"/>
      <point x="774" y="1327"/>
      <point x="633" y="1327" type="qcurve"/>
    </contour>
    <contour>
      <point x="197" y="1493" type="line"/>
      <point x="633" y="1493" type="line"/>
      <point x="883" y="1493"/>
      <point x="1141" y="1266"/>
      <point x="1141" y="1047" type="qcurve"/>
      <point x="1141" y="826"/>
      <point x="884" y="600"/>
      <point x="633" y="600" type="qcurve"/>
      <point x="399" y="600" type="line"/>
      <point x="399" y="0" type="line"/>
      <point x="197" y="0" type="line"/>
    </contour>
  </outline>
</glyph>
<glyph name="U" format="1">
  <advance width="1233"/>
  <unicode hex="0055"/>
  <outline>
    <contour>
      <point x="147" y="573" type="qcurve"/>
      <point x="147" y="1493" type="line"/>
      <point x="350" y="1493" type="line"/>
      <point x="350" y="481" type="line"/>
      <point x="350" y="372"/>
      <point x="362" y="279"/>
      <point x="377" y="254" type="qcurve"/>
      <point x="409" y="195"/>
      <point x="530" y="135"/>
      <point x="616" y="135" type="qcurve"/>
      <point x="703" y="135"/>
      <point x="823" y="195"/>
      <point x="856" y="254" type="qcurve"/>
      <point x="871" y="279"/>
      <point x="883" y="371"/>
      <point x="883" y="479" type="qcurve"/>
      <point x="883" y="573" type="line"/>
      <point x="883" y="1493" type="line"/>
      <point x="1085" y="1493" type="line"/>
      <point x="1085" y="573" type="line"/>
      <point x="1085" y="344"/>
      <point x="1028" y="151"/>
      <point x="958" y="88" type="qcurve"/>
      <point x="892" y="29"/>
      <point x="722" y="-29"/>
      <point x="616" y="-29" type="qcurve"/>
      <point x="511" y="-29"/>
      <point x="341" y="29"/>
      <point x="274" y="88" type="qcurve"/>
      <point x="205" y="150"/>
      <point x="147" y="347"/>
    </contour>
  </outline>
</glyph>
<glyph name="b" format="1">
  <advance width="1233"/>
  <unicode hex="0062"/>
  <outline>
    <contour>
      <point x="918" y="559" type="qcurve"/>
      <point x="918" y="773"/>
      <point x="782" y="991"/>
      <point x="649" y="991" type="qcurve"/>
      <point x="515" y="991"/>
      <point x="377" y="772"/>
      <point x="377" y="559" type="qcurve"/>
      <point x="377" y="347"/>
      <point x="515" y="127"/>
      <point x="649" y="127" type="qcurve"/>
      <point x="782" y="127"/>
      <point x="918" y="345"/>
    </contour>
    <contour>
      <point x="377" y="977" type="line"/>
      <point x="421" y="1059"/>
      <point x="576" y="1147"/>
      <point x="678" y="1147" type="qcurve"/>
      <point x="880" y="1147"/>
      <point x="1112" y="836"/>
      <point x="1112" y="563" type="qcurve"/>
      <point x="1112" y="286"/>
      <point x="879" y="-29"/>
      <point x="676" y="-29" type="qcurve"/>
      <point x="576" y="-29"/>
      <point x="423" y="58"/>
      <point x="377" y="141" type="qcurve"/>
      <point x="377" y="0" type="line"/>
      <point x="193" y="0" type="line"/>
      <point x="193" y="1556" type="line"/>
      <point x="377" y="1556" type="line"/>
    </contour>
  </outline>
</glyph>
<glyph name="f" format="1">
  <advance width="1233"/>
  <unicode hex="0066"/>
  <outline>
    <contour>
      <point x="1063" y="1556" type="line"/>
      <point x="1063" y="1403" type="line"/>
      <point x="854" y="1403" type="line"/>
      <point x="755" y="1403"/>
      <point x="678" y="1322"/>
      <point x="678" y="1219" type="qcurve"/>
      <point x="678" y="1120" type="line"/>
      <point x="1063" y="1120" type="line"/>
      <point x="1063" y="977" type="line"/>
      <point x="678" y="977" type="line"/>
      <point x="678" y="0" type="line"/>
      <point x="494" y="0" type="line"/>
      <point x="494" y="977" type="line"/>
      <point x="195" y="977" type="line"/>
      <point x="195" y="1120" type="line"/>
      <point x="494" y="1120" type="line"/>
      <point x="494" y="1198" type="line"/>
      <point x="494" y="1382"/>
      <point x="663" y="1556"/>
      <point x="842" y="1556" type="qcurve"/>
    </contour>
  </outline>
</glyph>
<glyph name="g" format="1">
  <advance width="1233"/>
  <unicode hex="0067"/>
  <outline>
    <contour>
      <point x="858" y="569" type="qcurve"/>
      <point x="858" y="776"/>
      <point x="723" y="991"/>
      <point x="594" y="991" type="qcurve"/>
      <point x="459" y="991"/>
      <point x="317" y="776"/>
      <point x="317" y="569" type="qcurve"/>
      <point x="317" y="362"/>
      <point x="460" y="145"/>
      <point x="596" y="145" type="qcurve"/>
      <point x="723" y="145"/>
      <point x="858" y="363"/>
    </contour>
    <contour>
      <point x="1042" y="72" type="line"/>
      <point x="1042" y="-180"/>
      <point x="804" y="-440"/>
      <point x="573" y="-440" type="qcurve"/>
      <point x="497" y="-440"/>
      <point x="331" y="-412"/>
      <point x="248" y="-385" type="qcurve"/>
      <point x="248" y="-203" type="line"/>
      <point x="346" y="-249"/>
      <point x="506" y="-293"/>
      <point x="573" y="-293" type="qcurve"/>
      <point x="722" y="-293"/>
      <point x="858" y="-131"/>
      <point x="858" y="45" type="qcurve"/>
      <point x="858" y="53" type="line"/>
      <point x="858" y="178" type="line"/>
      <point x="814" y="84"/>
      <point x="662" y="-8"/>
      <point x="553" y="-8" type="qcurve"/>
      <point x="357" y="-8"/>
      <point x="123" y="306"/>
      <point x="123" y="569" type="qcurve"/>
      <point x="123" y="833"/>
      <point x="357" y="1147"/>
      <point x="553" y="1147" type="qcurve"/>
      <point x="661" y="1147"/>
      <point x="811" y="1061"/>
      <point x="858" y="971" type="qcurve"/>
      <point x="858" y="1116" type="line"/>
      <point x="1042" y="1116" type="line"/>
    </contour>
  </outline>
</glyph>
<glyph name="m" format="1">
  <advance width="1233"/>
  <unicode hex="006D"/>
  <outline>
    <contour>
      <point x="676" y="1006" type="qcurve"/>
      <point x="710" y="1078"/>
      <point x="815" y="1147"/>
      <point x="889" y="1147" type="qcurve"/>
      <point x="1024" y="1147"/>
      <point x="1135" y="938"/>
      <point x="1135" y="649" type="qcurve"/>
      <point x="1135" y="0" type="line"/>
      <point x="967" y="0" type="line"/>
      <point x="967" y="641" type="line"/>
      <point x="967" y="878"/>
      <point x="914" y="993"/>
      <point x="844" y="993" type="qcurve"/>
      <point x="764" y="993"/>
      <point x="705" y="870"/>
      <point x="705" y="641" type="qcurve"/>
      <point x="705" y="0" type="line"/>
      <point x="537" y="0" type="line"/>
      <point x="537" y="641" type="line"/>
      <point x="537" y="881"/>
      <point x="480" y="993"/>
      <point x="406" y="993" type="qcurve"/>
      <point x="333" y="993"/>
      <point x="276" y="870"/>
      <point x="276" y="641" type="qcurve"/>
      <point x="276" y="0" type="line"/>
      <point x="109" y="0" type="line"/>
      <point x="109" y="1120" type="line"/>
      <point x="276" y="1120" type="line"/>
      <point x="276" y="1024" type="line"/>
      <point x="309" y="1084"/>
      <point x="408" y="1147"/>
      <point x="471" y="1147" type="qcurve"/>
      <point x="547" y="1147"/>
      <point x="648" y="1077"/>
    </contour>
  </outline>
</glyph>
<glyph name="q" format="1">
  <advance width="1233"/>
  <unicode hex="0071"/>
  <outline>
    <contour>
      <point x="332" y="555" type="qcurve"/>
      <point x="332" y="341"/>
      <point x="467" y="123"/>
      <point x="600" y="123" type="qcurve"/>
      <point x="733" y="123"/>
      <point x="870" y="342"/>
      <point x="870" y="555" type="qcurve"/>
      <point x="870" y="768"/>
      <point x="733" y="987"/>
      <point x="600" y="987" type="qcurve"/>
      <point x="467" y="987"/>
      <point x="332" y="769"/>
    </contour>
    <contour>
      <point x="870" y="139" type="line"/>
      <point x="825" y="56"/>
      <point x="672" y="-33"/>
      <point x="571" y="-33" type="qcurve"/>
      <point x="370" y="-33"/>
      <point x="137" y="278"/>
      <point x="137" y="551" type="qcurve"/>
      <point x="137" y="829"/>
      <point x="369" y="1143"/>
      <point x="571" y="1143" type="qcurve"/>
      <point x="671" y="1143"/>
      <point x="824" y="1056"/>
      <point x="870" y="973" type="qcurve"/>
      <point x="870" y="1116" type="line"/>
      <point x="1055" y="1116" type="line"/>
      <point x="1055" y="-430" type="line"/>
      <point x="870" y="-430" type="line"/>
    </contour>
  </outline>
</glyph>
<glyph name="t" format="1">
  <advance width="1233"/>
  <unicode hex="0074"/>
  <outline>
    <contour>
      <point x="614" y="1438" type="line"/>
      <point x="614" y="1120" type="line"/>
      <point x="1032" y="1120" type="line"/>
      <point x="1032" y="977" type="line"/>
      <point x="614" y="977" type="line"/>
      <point x="614" y="369" type="line"/>
      <point x="614" y="245"/>
      <point x="708" y="147"/>
      <point x="825" y="147" type="qcurve"/>
      <point x="1032" y="147" type="line"/>
      <point x="1032" y="0" type="line"/>
      <point x="807" y="0" type="line"/>
      <point x="600" y="0"/>
      <point x="430" y="166"/>
      <point x="430" y="369" type="qcurve"/>
      <point x="430" y="977" type="line"/>
      <point x="131" y="977" type="line"/>
      <point x="131" y="1120" type="line"/>
      <point x="430" y="1120" type="line"/>
      <point x="430" y="1438" type="line"/>
    </contour>
  </outline>
</glyph>
<glyph name="cent" format="1">
  <advance width="1233"/>
  <unicode hex="00A2"/>
  <outline>
    <contour>
      <point x="1061" y="1077" type="qcurve"/>
      <point x="1061" y="905" type="line"/>
      <point x="994" y="945"/>
      <point x="864" y="989"/>
      <point x="801" y="993" type="qcurve"/>
      <point x="801" y="123" type="line"/>
      <point x="864" y="128"/>
      <point x="995" y="173"/>
      <point x="1061" y="213" type="qcurve"/>
      <point x="1061" y="41" type="line"/>
      <point x="988" y="10"/>
      <point x="858" y="-24"/>
      <point x="801" y="-27" type="qcurve"/>
      <point x="801" y="-313" type="line"/>
      <point x="698" y="-313" type="line"/>
      <point x="698" y="-27" type="line"/>
      <point x="473" y="-5"/>
      <point x="213" y="308"/>
      <point x="213" y="559" type="qcurve"/>
      <point x="213" y="809"/>
      <point x="476" y="1126"/>
      <point x="698" y="1145" type="qcurve"/>
      <point x="698" y="1432" type="line"/>
      <point x="801" y="1432" type="line"/>
      <point x="801" y="1145" type="line"/>
      <point x="858" y="1142"/>
      <point x="988" y="1108"/>
    </contour>
    <contour>
      <point x="698" y="127" type="qcurve"/>
      <point x="698" y="991" type="line"/>
      <point x="566" y="979"/>
      <point x="406" y="743"/>
      <point x="406" y="559" type="qcurve"/>
      <point x="406" y="375"/>
      <point x="566" y="140"/>
    </contour>
  </outline>
</glyph>
<glyph name="currency" format="1">
  <advance width="1233"/>
  <unicode hex="00A4"/>
  <outline>
    <contour>
      <point x="868" y="643" type="qcurve"/>
      <point x="868" y="733"/>
      <point x="744" y="856"/>
      <point x="653" y="856" type="qcurve"/>
      <point x="563" y="856"/>
      <point x="438" y="733"/>
      <point x="438" y="643" type="qcurve"/>
      <point x="438" y="551"/>
      <point x="563" y="426"/>
      <point x="653" y="426" type="qcurve"/>
      <point x="744" y="426"/>
      <point x="868" y="552"/>
    </contour>
    <contour>
      <point x="844" y="924" type="qcurve"/>
      <point x="1010" y="1090" type="line"/>
      <point x="1100" y="997" type="line"/>
      <point x="934" y="831" type="line"/>
      <point x="964" y="782"/>
      <point x="993" y="689"/>
      <point x="993" y="641" type="qcurve"/>
      <point x="993" y="591"/>
      <point x="963" y="500"/>
      <point x="932" y="455" type="qcurve"/>
      <point x="1100" y="289" type="line"/>
      <point x="1006" y="195" type="line"/>
      <point x="840" y="362" type="line"/>
      <point x="794" y="331"/>
      <point x="703" y="301"/>
      <point x="653" y="301" type="qcurve"/>
      <point x="605" y="301"/>
      <point x="509" y="330"/>
      <point x="461" y="358" type="qcurve"/>
      <point x="297" y="195" type="line"/>
      <point x="205" y="285" type="line"/>
      <point x="371" y="451" type="line"/>
      <point x="340" y="502"/>
      <point x="311" y="595"/>
      <point x="311" y="641" type="qcurve"/>
      <point x="311" y="691"/>
      <point x="342" y="784"/>
      <point x="373" y="829" type="qcurve"/>
      <point x="205" y="995" type="line"/>
      <point x="299" y="1090" type="line"/>
      <point x="465" y="922" type="line"/>
      <point x="511" y="953"/>
      <point x="602" y="983"/>
      <point x="653" y="983" type="qcurve"/>
      <point x="699" y="983"/>
      <point x="793" y="954"/>
    </contour>
  </outline>
</glyph>
<glyph name="section" format="1">
  <advance width="1233"/>
  <unicode hex="00A7"/>
  <outline>
    <contour>
      <point x="936" y="1462" type="qcurve"/>
      <point x="936" y="1298" type="line"/>
      <point x="853" y="1337"/>
      <point x="710" y="1376"/>
      <point x="653" y="1376" type="qcurve"/>
      <point x="556" y="1376"/>
      <point x="449" y="1296"/>
      <point x="449" y="1225" type="qcurve"/>
      <point x="449" y="1135"/>
      <point x="654" y="1020" type="qcurve"/>
      <point x="680" y="1005"/>
      <point x="694" y="997" type="qcurve"/>
      <point x="906" y="878"/>
      <point x="1036" y="724"/>
      <point x="1036" y="623" type="qcurve"/>
      <point x="1036" y="533"/>
      <point x="945" y="393"/>
      <point x="852" y="340" type="qcurve"/>
      <point x="913" y="288"/>
      <point x="971" y="179"/>
      <point x="971" y="115" type="qcurve"/>
      <point x="971" y="-27"/>
      <point x="767" y="-195"/>
      <point x="594" y="-195" type="qcurve"/>
      <point x="521" y="-195"/>
      <point x="366" y="-166"/>
      <point x="279" y="-137" type="qcurve"/>
      <point x="279" y="27" type="line"/>
      <point x="366" y="-12"/>
      <point x="514" y="-51"/>
      <point x="571" y="-51" type="qcurve"/>
      <point x="673" y="-51"/>
      <point x="786" y="33"/>
      <point x="786" y="109" type="qcurve"/>
      <point x="786" y="211"/>
      <point x="565" y="334" type="qcurve"/>
      <point x="541" y="348" type="line"/>
      <point x="327" y="468"/>
      <point x="199" y="621"/>
      <point x="199" y="723" type="qcurve"/>
      <point x="199" y="814"/>
      <point x="292" y="957"/>
      <point x="383" y="1006" type="qcurve"/>
      <point x="323" y="1050"/>
      <point x="264" y="1162"/>
      <point x="264" y="1231" type="qcurve"/>
      <point x="264" y="1361"/>
      <point x="464" y="1520"/>
      <point x="631" y="1520" type="qcurve"/>
      <point x="703" y="1520"/>
      <point x="856" y="1491"/>
    </contour>
    <contour>
      <point x="485" y="936" type="qcurve"/>
      <point x="423" y="891"/>
      <point x="362" y="801"/>
      <point x="362" y="754" type="qcurve"/>
      <point x="362" y="678"/>
      <point x="503" y="543"/>
      <point x="750" y="410" type="qcurve"/>
      <point x="812" y="455"/>
      <point x="872" y="545"/>
      <point x="872" y="592" type="qcurve"/>
      <point x="872" y="668"/>
      <point x="729" y="804"/>
    </contour>
  </outline>
</glyph>
<glyph name="ordfeminine" format="1">
  <advance width="1233"/>
  <unicode hex="00AA"/>
  <outline>
    <contour>
      <point x="684" y="1104" type="line"/>
      <point x="540" y="1104"/>
      <point x="416" y="1036"/>
      <point x="416" y="958" type="qcurve"/>
      <point x="416" y="894"/>
      <point x="503" y="817"/>
      <point x="575" y="817" type="qcurve"/>
      <point x="680" y="817"/>
      <point x="811" y="960"/>
      <point x="811" y="1075" type="qcurve"/>
      <point x="811" y="1104" type="line"/>
    </contour>
    <contour>
      <point x="954" y="1165" type="qcurve"/>
      <point x="954" y="717" type="line"/>
      <point x="811" y="717" type="line"/>
      <point x="811" y="829" type="line"/>
      <point x="762" y="764"/>
      <point x="631" y="698"/>
      <point x="549" y="698" type="qcurve"/>
      <point x="420" y="698"/>
      <point x="270" y="834"/>
      <point x="270" y="950" type="qcurve"/>
      <point x="270" y="1079"/>
      <point x="457" y="1219"/>
      <point x="629" y="1219" type="qcurve"/>
      <point x="811" y="1219" type="line"/>
      <point x="811" y="1223" type="line"/>
      <point x="811" y="1313"/>
      <point x="692" y="1405"/>
      <point x="575" y="1405" type="qcurve"/>
      <point x="524" y="1405"/>
      <point x="399" y="1370"/>
      <point x="332" y="1337" type="qcurve"/>
      <point x="332" y="1464" type="line"/>
      <point x="400" y="1492"/>
      <point x="535" y="1520"/>
      <point x="598" y="1520" type="qcurve"/>
      <point x="782" y="1520"/>
      <point x="954" y="1348"/>
    </contour>
    <contour>
      <point x="293" y="592" type="line"/>
      <point x="961" y="592" type="line"/>
      <point x="961" y="469" type="line"/>
      <point x="293" y="469" type="line"/>
    </contour>
  </outline>
</glyph>
<glyph name="registered" format="1">
  <advance width="1233"/>
  <unicode hex="00AE"/>
  <outline>
    <contour>
      <point x="600" y="1100" type="line"/>
      <point x="747" y="1100"/>
      <point x="891" y="1002"/>
      <point x="891" y="901" type="qcurve"/>
      <point x="891" y="830"/>
      <point x="803" y="737"/>
      <point x="723" y="723" type="qcurve"/>
      <point x="742" y="718"/>
      <point x="800" y="651"/>
      <point x="838" y="592" type="qcurve"/>
      <point x="952" y="406" type="line"/>
      <point x="809" y="406" type="line"/>
      <point x="702" y="580" type="line"/>
      <point x="653" y="660"/>
      <point x="592" y="702"/>
      <point x="547" y="702" type="qcurve"/>
      <point x="492" y="702" type="line"/>
      <point x="492" y="406" type="line"/>
      <point x="362" y="406" type="line"/>
      <point x="362" y="1100" type="line"/>
    </contour>
    <contour>
      <point x="594" y="1016" type="qcurve"/>
      <point x="492" y="1016" type="line"/>
      <point x="492" y="784" type="line"/>
      <point x="594" y="784" type="line"/>
      <point x="684" y="784"/>
      <point x="758" y="838"/>
      <point x="758" y="901" type="qcurve"/>
      <point x="758" y="963"/>
      <point x="684" y="1016"/>
    </contour>
    <contour>
      <point x="616" y="1358" type="qcurve"/>
      <point x="743" y="1358"/>
      <point x="961" y="1268"/>
      <point x="1051" y="1178" type="qcurve"/>
      <point x="1141" y="1087"/>
      <point x="1233" y="867"/>
      <point x="1233" y="741" type="qcurve"/>
      <point x="1233" y="616"/>
      <point x="1142" y="398"/>
      <point x="1051" y="307" type="qcurve"/>
      <point x="960" y="216"/>
      <point x="742" y="125"/>
      <point x="616" y="125" type="qcurve"/>
      <point x="491" y="125"/>
      <point x="273" y="216"/>
      <point x="182" y="307" type="qcurve"/>
      <point x="91" y="398"/>
      <point x="0" y="616"/>
      <point x="0" y="741" type="qcurve"/>
      <point x="0" y="867"/>
      <point x="92" y="1087"/>
      <point x="182" y="1178" type="qcurve"/>
      <point x="272" y="1268"/>
      <point x="490" y="1358"/>
    </contour>
    <contour>
      <point x="616" y="1255" type="qcurve"/>
      <point x="510" y="1255"/>
      <point x="329" y="1181"/>
      <point x="254" y="1106" type="qcurve"/>
      <point x="179" y="1031"/>
      <point x="102" y="847"/>
      <point x="102" y="741" type="qcurve"/>
      <point x="102" y="637"/>
      <point x="179" y="454"/>
      <point x="254" y="379" type="qcurve"/>
      <point x="330" y="303"/>
      <point x="511" y="227"/>
      <point x="616" y="227" type="qcurve"/>
      <point x="722" y="227"/>
      <point x="903" y="303"/>
      <point x="979" y="379" type="qcurve"/>
      <point x="1055" y="455"/>
      <point x="1130" y="636"/>
      <point x="1130" y="741" type="qcurve"/>
      <point x="1130" y="847"/>
      <point x="1054" y="1031"/>
      <point x="979" y="1106" type="qcurve"/>
      <point x="904" y="1181"/>
      <point x="723" y="1255"/>
    </contour>
  </outline>
</glyph>
<glyph name="overscore" format="1">
  <advance width="1233"/>
  <unicode hex="00AF"/>
  <outline>
    <contour>
      <point x="317" y="1526" type="line"/>
      <point x="915" y="1526" type="line"/>
      <point x="915" y="1378" type="line"/>
      <point x="317" y="1378" type="line"/>
    </contour>
  </outline>
</glyph>
<glyph name="twosuperior" format="1">
  <advance width="1233"/>
  <unicode hex="00B2"/>
  <outline>
    <contour>
      <point x="483" y="782" type="line"/>
      <point x="893" y="782" type="line"/>
      <point x="893" y="668" type="line"/>
      <point x="322" y="668" type="line"/>
      <point x="322" y="778" type="line"/>
      <point x="553" y="1004" type="line"/>
      <point x="654" y="1101"/>
      <point x="735" y="1223"/>
      <point x="735" y="1274" type="qcurve"/>
      <point x="735" y="1335"/>
      <point x="635" y="1411"/>
      <point x="553" y="1411" type="qcurve"/>
      <point x="504" y="1411"/>
      <point x="391" y="1375"/>
      <point x="328" y="1339" type="qcurve"/>
      <point x="328" y="1464" type="line"/>
      <point x="393" y="1492"/>
      <point x="514" y="1520"/>
      <point x="573" y="1520" type="qcurve"/>
      <point x="715" y="1520"/>
      <point x="887" y="1387"/>
      <point x="887" y="1280" type="qcurve"/>
      <point x="887" y="1223"/>
      <point x="813" y="1104"/>
      <point x="694" y="987" type="qcurve"/>
    </contour>
  </outline>
</glyph>
<glyph name="mu" format="1">
  <advance width="1233"/>
  <unicode hex="00B5"/>
  <outline>
    <contour>
      <point x="195" y="-428" type="line"/>
      <point x="195" y="1120" type="line"/>
      <point x="379" y="1120" type="line"/>
      <point x="379" y="424" type="line"/>
      <point x="379" y="282"/>
      <point x="499" y="131"/>
      <point x="610" y="131" type="qcurve"/>
      <point x="737" y="131"/>
      <point x="866" y="301"/>
      <point x="866" y="467" type="qcurve"/>
      <point x="866" y="1120" type="line"/>
      <point x="1051" y="1120" type="line"/>
      <point x="1051" y="256" type="line"/>
      <point x="1051" y="197"/>
      <point x="1083" y="141"/>
      <point x="1116" y="141" type="qcurve"/>
      <point x="1125" y="141"/>
      <point x="1154" y="151"/>
      <point x="1182" y="164" type="qcurve"/>
      <point x="1182" y="16" type="line"/>
      <point x="1144" y="-7"/>
      <point x="1076" y="-29"/>
      <point x="1042" y="-29" type="qcurve"/>
      <point x="980" y="-29"/>
      <point x="905" y="50"/>
      <point x="893" y="129" type="qcurve"/>
      <point x="847" y="49"/>
      <point x="714" y="-29"/>
      <point x="625" y="-29" type="qcurve"/>
      <point x="533" y="-29"/>
      <point x="406" y="47"/>
      <point x="362" y="127" type="qcurve"/>
      <point x="362" y="-428" type="line"/>
    </contour>
  </outline>
</glyph>
<glyph name="questiondown" format="1">
  <advance width="1233"/>
  <unicode hex="00BF"/>
  <outline>
    <contour>
      <point x="549" y="1092" type="line"/>
      <point x="739" y="1092" type="line"/>
      <point x="739" y="938" type="line"/>
      <point x="739" y="840"/>
      <point x="678" y="703"/>
      <point x="594" y="621" type="qcurve"/>
      <point x="504" y="532" type="line"/>
      <point x="442" y="473"/>
      <point x="395" y="385"/>
      <point x="395" y="336" type="qcurve"/>
      <point x="395" y="247"/>
      <point x="526" y="137"/>
      <point x="635" y="137" type="qcurve"/>
      <point x="713" y="137"/>
      <point x="891" y="206"/>
      <point x="989" y="274" type="qcurve"/>
      <point x="989" y="86" type="line"/>
      <point x="895" y="29"/>
      <point x="704" y="-27"/>
      <point x="600" y="-27" type="qcurve"/>
      <point x="414" y="-27"/>
      <point x="193" y="165"/>
      <point x="193" y="326" type="qcurve"/>
      <point x="193" y="402"/>
      <point x="260" y="533"/>
      <point x="354" y="625" type="qcurve"/>
      <point x="442" y="711" type="line"/>
      <point x="509" y="775"/>
      <point x="547" y="859"/>
      <point x="547" y="922" type="qcurve"/>
      <point x="547" y="923"/>
      <point x="547" y="927" type="qcurve"/>
      <point x="549" y="950"/>
      <point x="549" y="969" type="qcurve"/>
    </contour>
    <contour>
      <point x="745" y="1239" type="line"/>
      <point x="543" y="1239" type="line"/>
      <point x="543" y="1493" type="line"/>
      <point x="745" y="1493" type="line"/>
    </contour>
  </outline>
</glyph>
<glyph name="Aring" format="1">
  <advance width="1233"/>
  <unicode hex="00C5"/>
  <outline>
    <contour>
      <point x="768" y="1626" type="qcurve"/>
      <point x="768" y="1689"/>
      <point x="679" y="1778"/>
      <point x="616" y="1778" type="qcurve"/>
      <point x="552" y="1778"/>
      <point x="465" y="1691"/>
      <point x="465" y="1626" type="qcurve"/>
      <point x="465" y="1563"/>
      <point x="553" y="1475"/>
      <point x="616" y="1475" type="qcurve"/>
      <point x="679" y="1475"/>
      <point x="768" y="1563"/>
    </contour>
    <contour>
      <point x="616" y="1311" type="line"/>
      <point x="403" y="551" type="line"/>
      <point x="829" y="551" type="line"/>
    </contour>
    <contour>
      <point x="465" y="1399" type="line"/>
      <point x="407" y="1432"/>
      <point x="342" y="1553"/>
      <point x="342" y="1626" type="qcurve"/>
      <point x="342" y="1740"/>
      <point x="502" y="1901"/>
      <point x="616" y="1901" type="qcurve"/>
      <point x="730" y="1901"/>
      <point x="891" y="1740"/>
      <point x="891" y="1626" type="qcurve"/>
      <point x="891" y="1553"/>
      <point x="827" y="1435"/>
      <point x="768" y="1399" type="qcurve"/>
      <point x="1196" y="0" type="line"/>
      <point x="987" y="0" type="line"/>
      <point x="877" y="389" type="line"/>
      <point x="354" y="389" type="line"/>
      <point x="246" y="0" type="line"/>
      <point x="37" y="0" type="line"/>
    </contour>
  </outline>
</glyph>
<glyph name="Eth" format="1">
  <advance width="1233"/>
  <unicode hex="00D0"/>
  <outline>
    <contour>
      <point x="436" y="1493" type="line"/>
      <point x="778" y="1493"/>
      <point x="1102" y="1129"/>
      <point x="1102" y="745" type="qcurve"/>
      <point x="1102" y="363"/>
      <point x="777" y="0"/>
      <point x="436" y="0" type="qcurve"/>
      <point x="133" y="0" type="line"/>
      <point x="133" y="709" type="line"/>
      <point x="8" y="709" type="line"/>
      <point x="8" y="858" type="line"/>
      <point x="133" y="858" type="line"/>
      <point x="133" y="1493" type="line"/>
    </contour>
    <contour>
      <point x="436" y="166" type="line"/>
      <point x="691" y="166"/>
      <point x="893" y="417"/>
      <point x="893" y="745" type="qcurve"/>
      <point x="893" y="1076"/>
      <point x="692" y="1327"/>
      <point x="436" y="1327" type="qcurve"/>
      <point x="340" y="1327" type="line"/>
      <point x="340" y="858" type="line"/>
      <point x="604" y="858" type="line"/>
      <point x="604" y="709" type="line"/>
      <point x="340" y="709" type="line"/>
      <point x="340" y="166" type="line"/>
    </contour>
  </outline>
</glyph>
<glyph name="germandbls" format="1">
  <advance width="1233"/>
  <unicode hex="00DF"/>
  <outline>
    <contour>
      <point x="188" y="1137" type="line"/>
      <point x="188" y="1350"/>
      <point x="398" y="1556"/>
      <point x="614" y="1556" type="qcurve"/>
      <point x="818" y="1556"/>
      <point x="1028" y="1335"/>
      <point x="1030" y="1119" type="qcurve"/>
      <point x="875" y="1105"/>
      <point x="707" y="981"/>
      <point x="707" y="881" type="qcurve"/>
      <point x="707" y="832"/>
      <point x="762" y="755"/>
      <point x="829" y="713" type="qcurve"/>
      <point x="887" y="676" type="line"/>
      <point x="1038" y="583"/>
      <point x="1149" y="419"/>
      <point x="1149" y="303" type="qcurve"/>
      <point x="1149" y="149"/>
      <point x="925" y="-29"/>
      <point x="729" y="-29" type="qcurve"/>
      <point x="660" y="-29"/>
      <point x="525" y="-4"/>
      <point x="459" y="20" type="qcurve"/>
      <point x="459" y="184" type="line"/>
      <point x="535" y="153"/>
      <point x="668" y="123"/>
      <point x="727" y="123" type="qcurve"/>
      <point x="835" y="123"/>
      <point x="963" y="220"/>
      <point x="963" y="301" type="qcurve"/>
      <point x="963" y="372"/>
      <point x="898" y="467"/>
      <point x="778" y="541" type="qcurve"/>
      <point x="711" y="580" type="line"/>
      <point x="619" y="636"/>
      <point x="528" y="769"/>
      <point x="528" y="848" type="qcurve"/>
      <point x="528" y="976"/>
      <point x="690" y="1147"/>
      <point x="846" y="1182" type="qcurve"/>
      <point x="844" y="1289"/>
      <point x="723" y="1403"/>
      <point x="610" y="1403" type="qcurve"/>
      <point x="489" y="1403"/>
      <point x="375" y="1272"/>
      <point x="375" y="1133" type="qcurve"/>
      <point x="375" y="0" type="line"/>
      <point x="188" y="0" type="line"/>
    </contour>
  </outline>
</glyph>
<glyph name="eth" format="1">
  <advance width="1233"/>
  <unicode hex="00F0"/>
  <outline>
    <contour>
      <point x="717" y="1327" type="line"/>
      <point x="914" y="1115"/>
      <point x="1096" y="735"/>
      <point x="1096" y="535" type="qcurve"/>
      <point x="1096" y="267"/>
      <point x="845" y="-29"/>
      <point x="616" y="-29" type="qcurve"/>
      <point x="388" y="-29"/>
      <point x="137" y="267"/>
      <point x="137" y="535" type="qcurve"/>
      <point x="137" y="800"/>
      <point x="388" y="1096"/>
      <point x="612" y="1096" type="qcurve"/>
      <point x="646" y="1096"/>
      <point x="681" y="1094"/>
      <point x="696" y="1092" type="qcurve"/>
      <point x="663" y="1137"/>
      <point x="591" y="1226"/>
      <point x="553" y="1270" type="qcurve"/>
      <point x="274" y="1178" type="line"/>
      <point x="244" y="1276" type="line"/>
      <point x="481" y="1356" type="line"/>
      <point x="299" y="1556" type="line"/>
      <point x="518" y="1556" type="line"/>
      <point x="645" y="1411" type="line"/>
      <point x="934" y="1505" type="line"/>
      <point x="967" y="1407" type="line"/>
    </contour>
    <contour>
      <point x="793" y="918" type="qcurve"/>
      <point x="758" y="931"/>
      <point x="676" y="944"/>
      <point x="631" y="944" type="qcurve"/>
      <point x="485" y="944"/>
      <point x="332" y="734"/>
      <point x="332" y="535" type="qcurve"/>
      <point x="332" y="339"/>
      <point x="480" y="127"/>
      <point x="616" y="127" type="qcurve"/>
      <point x="753" y="127"/>
      <point x="901" y="339"/>
      <point x="901" y="535" type="qcurve"/>
      <point x="901" y="645"/>
      <point x="843" y="848"/>
    </contour>
  </outline>
</glyph>
<glyph name="lslash" format="1">
  <advance width="1233"/>
  <unicode hex="0142"/>
  <outline>
    <contour>
      <point x="639" y="406" type="line"/>
      <point x="639" y="282"/>
      <point x="730" y="156"/>
      <point x="819" y="156" type="qcurve"/>
      <point x="1034" y="156" type="line"/>
      <point x="1034" y="0" type="line"/>
      <point x="801" y="0" type="line"/>
      <point x="636" y="0"/>
      <point x="455" y="212"/>
      <point x="455" y="406" type="qcurve"/>
      <point x="455" y="698" type="line"/>
      <point x="156" y="489" type="line"/>
      <point x="76" y="600" type="line"/>
      <point x="455" y="864" type="line"/>
      <point x="455" y="1423" type="line"/>
      <point x="160" y="1423" type="line"/>
      <point x="160" y="1567" type="line"/>
      <point x="639" y="1567" type="line"/>
      <point x="639" y="989" type="line"/>
      <point x="954" y="1208" type="line"/>
      <point x="1034" y="1098" type="line"/>
      <point x="639" y="823" type="line"/>
    </contour>
  </outline>
</glyph>
<glyph name="oe" format="1">
  <advance width="1233"/>
  <unicode hex="0153"/>
  <outline>
    <contour>
      <point x="1047" y="657" type="line"/>
      <point x="1047" y="668"/>
      <point x="1049" y="706"/>
      <point x="1049" y="715" type="qcurve"/>
      <point x="1049" y="860"/>
      <point x="969" y="995"/>
      <point x="883" y="995" type="qcurve"/>
      <point x="796" y="995"/>
      <point x="719" y="858"/>
      <point x="719" y="700" type="qcurve"/>
      <point x="719" y="657" type="line"/>
    </contour>
    <contour>
      <point x="373" y="123" type="qcurve"/>
      <point x="475" y="123"/>
      <point x="557" y="291"/>
      <point x="557" y="530" type="qcurve"/>
      <point x="557" y="821"/>
      <point x="477" y="995"/>
      <point x="373" y="995" type="qcurve"/>
      <point x="270" y="995"/>
      <point x="190" y="828"/>
      <point x="190" y="559" type="qcurve"/>
      <point x="190" y="290"/>
      <point x="270" y="123"/>
    </contour>
    <contour>
      <point x="1210" y="514" type="line"/>
      <point x="719" y="514" type="line"/>
      <point x="719" y="430" type="line"/>
      <point x="719" y="267"/>
      <point x="818" y="123"/>
      <point x="930" y="123" type="qcurve"/>
      <point x="1010" y="123"/>
      <point x="1141" y="176"/>
      <point x="1188" y="227" type="qcurve"/>
      <point x="1188" y="55" type="line"/>
      <point x="1129" y="12"/>
      <point x="1004" y="-29"/>
      <point x="930" y="-29" type="qcurve"/>
      <point x="832" y="-29"/>
      <point x="685" y="38"/>
      <point x="637" y="104" type="qcurve"/>
      <point x="585" y="36"/>
      <point x="457" y="-29"/>
      <point x="373" y="-29" type="qcurve"/>
      <point x="184" y="-29"/>
      <point x="14" y="247"/>
      <point x="14" y="559" type="qcurve"/>
      <point x="14" y="871"/>
      <point x="184" y="1147"/>
      <point x="373" y="1147" type="qcurve"/>
      <point x="462" y="1147"/>
      <point x="590" y="1085"/>
      <point x="637" y="1020" type="qcurve"/>
      <point x="674" y="1082"/>
      <point x="804" y="1147"/>
      <point x="891" y="1147" type="qcurve"/>
      <point x="1066" y="1147"/>
      <point x="1210" y="910"/>
      <point x="1210" y="604" type="qcurve"/>
    </contour>
  </outline>
</glyph>
<glyph name="ogonek" format="1">
  <advance width="1233"/>
  <unicode hex="02DB"/>
  <outline>
    <contour>
      <point x="528" y="0" type="qcurve"/>
      <point x="647" y="0" type="line"/>
      <point x="602" y="-61"/>
      <point x="559" y="-149"/>
      <point x="559" y="-180" type="qcurve"/>
      <point x="559" y="-226"/>
      <point x="614" y="-272"/>
      <point x="668" y="-272" type="qcurve"/>
      <point x="700" y="-272"/>
      <point x="762" y="-257"/>
      <point x="793" y="-242" type="qcurve"/>
      <point x="793" y="-375" type="line"/>
      <point x="755" y="-385"/>
      <point x="687" y="-395"/>
      <point x="657" y="-395" type="qcurve"/>
      <point x="535" y="-395"/>
      <point x="420" y="-308"/>
      <point x="420" y="-215" type="qcurve"/>
      <point x="420" y="-167"/>
      <point x="473" y="-62"/>
    </contour>
  </outline>
</glyph>
<glyph name="tilde" format="1">
  <advance width="1233"/>
  <unicode hex="02DC"/>
  <outline>
    <contour>
      <point x="612" y="1370" type="qcurve"/>
      <point x="555" y="1425" type="line"/>
      <point x="534" y="1445"/>
      <point x="501" y="1464"/>
      <point x="487" y="1464" type="qcurve"/>
      <point x="449" y="1464"/>
      <point x="413" y="1390"/>
      <point x="411" y="1309" type="qcurve"/>
      <point x="287" y="1309" type="line"/>
      <point x="288" y="1443"/>
      <point x="390" y="1591"/>
      <point x="481" y="1591" type="qcurve"/>
      <point x="520" y="1591"/>
      <point x="584" y="1563"/>
      <point x="621" y="1530" type="qcurve"/>
      <point x="678" y="1475" type="line"/>
      <point x="699" y="1455"/>
      <point x="732" y="1436"/>
      <point x="745" y="1436" type="qcurve"/>
      <point x="784" y="1436"/>
      <point x="820" y="1510"/>
      <point x="821" y="1591" type="qcurve"/>
      <point x="946" y="1591" type="line"/>
      <point x="945" y="1457"/>
      <point x="843" y="1309"/>
      <point x="752" y="1309" type="qcurve"/>
      <point x="713" y="1309"/>
      <point x="649" y="1337"/>
    </contour>
  </outline>
</glyph>
<glyph name="Omega" format="1">
  <advance width="1233"/>
  <unicode hex="03A9"/>
  <outline>
    <contour>
      <point x="74" y="0" type="line"/>
      <point x="74" y="172" type="line"/>
      <point x="319" y="172" type="line"/>
      <point x="196" y="306"/>
      <point x="86" y="594"/>
      <point x="86" y="782" type="qcurve"/>
      <point x="86" y="1093"/>
      <point x="374" y="1460"/>
      <point x="614" y="1460" type="qcurve"/>
      <point x="856" y="1460"/>
      <point x="1145" y="1094"/>
      <point x="1145" y="782" type="qcurve"/>
      <point x="1145" y="594"/>
      <point x="1034" y="305"/>
      <point x="911" y="172" type="qcurve"/>
      <point x="1159" y="172" type="line"/>
      <point x="1159" y="0" type="line"/>
      <point x="696" y="0" type="line"/>
      <point x="696" y="172" type="line"/>
      <point x="816" y="248"/>
      <point x="950" y="577"/>
      <point x="950" y="799" type="qcurve"/>
      <point x="950" y="1029"/>
      <point x="770" y="1294"/>
      <point x="616" y="1294" type="qcurve"/>
      <point x="462" y="1294"/>
      <point x="283" y="1029"/>
      <point x="283" y="799" type="qcurve"/>
      <point x="283" y="577"/>
      <point x="417" y="248"/>
      <point x="537" y="172" type="qcurve"/>
      <point x="537" y="0" type="line"/>
    </contour>
  </outline>
</glyph>
<glyph name="pi" format="1">
  <advance width="1233"/>
  <unicode hex="03C0"/>
  <outline>
    <contour>
      <point x="80" y="1100" type="line"/>
      <point x="1153" y="1100" type="line"/>
      <point x="1153" y="952" type="line"/>
      <point x="1012" y="952" type="line"/>
      <point x="1012" y="248" type="line"/>
      <point x="1012" y="176"/>
      <point x="1061" y="113"/>
      <point x="1116" y="113" type="qcurve"/>
      <point x="1131" y="113"/>
      <point x="1175" y="118"/>
      <point x="1182" y="119" type="qcurve"/>
      <point x="1182" y="-14" type="line"/>
      <point x="1147" y="-27"/>
      <point x="1073" y="-39"/>
      <point x="1036" y="-39" type="qcurve"/>
      <point x="923" y="-39"/>
      <point x="831" y="92"/>
      <point x="831" y="268" type="qcurve"/>
      <point x="831" y="952" type="line"/>
      <point x="403" y="952" type="line"/>
      <point x="403" y="0" type="line"/>
      <point x="223" y="0" type="line"/>
      <point x="223" y="952" type="line"/>
      <point x="80" y="952" type="line"/>
    </contour>
  </outline>
</glyph>
<glyph name="perthousand" format="1">
  <advance width="1233"/>
  <unicode hex="2030"/>
  <outline>
    <contour>
      <point x="72" y="567" type="line"/>
      <point x="35" y="664" type="line"/>
      <point x="1079" y="1079" type="line"/>
      <point x="1118" y="983" type="line"/>
    </contour>
    <contour>
      <point x="166" y="289" type="qcurve"/>
      <point x="166" y="218"/>
      <point x="261" y="121"/>
      <point x="330" y="121" type="qcurve"/>
      <point x="398" y="121"/>
      <point x="496" y="220"/>
      <point x="496" y="289" type="qcurve"/>
      <point x="496" y="356"/>
      <point x="397" y="455"/>
      <point x="330" y="455" type="qcurve"/>
      <point x="261" y="455"/>
      <point x="166" y="358"/>
    </contour>
    <contour>
      <point x="45" y="289" type="qcurve"/>
      <point x="45" y="410"/>
      <point x="210" y="575"/>
      <point x="330" y="575" type="qcurve"/>
      <point x="450" y="575"/>
      <point x="616" y="409"/>
      <point x="616" y="289" type="qcurve"/>
      <point x="616" y="168"/>
      <point x="449" y="0"/>
      <point x="330" y="0" type="qcurve"/>
      <point x="209" y="0"/>
      <point x="45" y="166"/>
    </contour>
    <contour>
      <point x="121" y="1145" type="qcurve"/>
      <point x="121" y="1076"/>
      <point x="218" y="979"/>
      <point x="287" y="979" type="qcurve"/>
      <point x="356" y="979"/>
      <point x="453" y="1076"/>
      <point x="453" y="1145" type="qcurve"/>
      <point x="453" y="1212"/>
      <point x="354" y="1311"/>
      <point x="287" y="1311" type="qcurve"/>
      <point x="218" y="1311"/>
      <point x="121" y="1214"/>
    </contour>
    <contour>
      <point x="0" y="1145" type="qcurve"/>
      <point x="0" y="1265"/>
      <point x="166" y="1432"/>
      <point x="287" y="1432" type="qcurve"/>
      <point x="407" y="1432"/>
      <point x="573" y="1265"/>
      <point x="573" y="1145" type="qcurve"/>
      <point x="573" y="1024"/>
      <point x="407" y="856"/>
      <point x="287" y="856" type="qcurve"/>
      <point x="166" y="856"/>
      <point x="0" y="1023"/>
    </contour>
    <contour>
      <point x="780" y="289" type="qcurve"/>
      <point x="780" y="218"/>
      <point x="877" y="121"/>
      <point x="946" y="121" type="qcurve"/>
      <point x="1016" y="121"/>
      <point x="1112" y="218"/>
      <point x="1112" y="289" type="qcurve"/>
      <point x="1112" y="356"/>
      <point x="1014" y="455"/>
      <point x="946" y="455" type="qcurve"/>
      <point x="877" y="455"/>
      <point x="780" y="358"/>
    </contour>
    <contour>
      <point x="659" y="289" type="qcurve"/>
      <point x="659" y="409"/>
      <point x="825" y="575"/>
      <point x="946" y="575" type="qcurve"/>
      <point x="1066" y="575"/>
      <point x="1233" y="409"/>
      <point x="1233" y="289" type="qcurve"/>
      <point x="1233" y="168"/>
      <point x="1066" y="0"/>
      <point x="946" y="0" type="qcurve"/>
      <point x="825" y="0"/>
      <point x="659" y="167"/>
    </contour>
  </outline>
</glyph>
<glyph name="Euro" format="1">
  <advance width="1233"/>
  <unicode hex="20AC"/>
  <outline>
    <contour>
      <point x="211" y="948" type="line"/>
      <point x="259" y="1231"/>
      <point x="533" y="1520"/>
      <point x="756" y="1520" type="qcurve"/>
      <point x="840" y="1520"/>
      <point x="987" y="1480"/>
      <point x="1061" y="1438" type="qcurve"/>
      <point x="1061" y="1231" type="line"/>
      <point x="995" y="1292"/>
      <point x="836" y="1360"/>
      <point x="758" y="1360" type="qcurve"/>
      <point x="612" y="1360"/>
      <point x="438" y="1152"/>
      <point x="414" y="948" type="qcurve"/>
      <point x="895" y="948" type="line"/>
      <point x="846" y="840" type="line"/>
      <point x="404" y="840" type="line"/>
      <point x="402" y="820"/>
      <point x="401" y="775"/>
      <point x="401" y="729" type="qcurve"/>
      <point x="401" y="714"/>
      <point x="402" y="676"/>
      <point x="403" y="653" type="qcurve"/>
      <point x="764" y="653" type="line"/>
      <point x="715" y="543" type="line"/>
      <point x="414" y="543" type="line"/>
      <point x="437" y="340"/>
      <point x="611" y="131"/>
      <point x="758" y="131" type="qcurve"/>
      <point x="837" y="131"/>
      <point x="994" y="198"/>
      <point x="1061" y="260" type="qcurve"/>
      <point x="1061" y="53" type="line"/>
      <point x="989" y="11"/>
      <point x="841" y="-29"/>
      <point x="756" y="-29" type="qcurve"/>
      <point x="530" y="-29"/>
      <point x="255" y="259"/>
      <point x="211" y="543" type="qcurve"/>
      <point x="37" y="543" type="line"/>
      <point x="86" y="653" type="line"/>
      <point x="203" y="653" type="line"/>
      <point x="202" y="665"/>
      <point x="201" y="685" type="qcurve"/>
      <point x="199" y="730"/>
      <point x="199" y="745" type="qcurve"/>
      <point x="199" y="763"/>
      <point x="201" y="810" type="qcurve"/>
      <point x="202" y="829"/>
      <point x="203" y="840" type="qcurve"/>
      <point x="37" y="840" type="line"/>
      <point x="86" y="948" type="line"/>
    </contour>
  </outline>
</glyph>
<glyph name="infinity" format="1">
  <advance width="1233"/>
  <unicode hex="221E"/>
  <outline>
    <contour>
      <point x="694" y="627" type="qcurve"/>
      <point x="751" y="491"/>
      <point x="842" y="391"/>
      <point x="903" y="391" type="qcurve"/>
      <point x="974" y="391"/>
      <point x="1065" y="525"/>
      <point x="1065" y="633" type="qcurve"/>
      <point x="1065" y="740"/>
      <point x="981" y="868"/>
      <point x="911" y="868" type="qcurve"/>
      <point x="845" y="868"/>
      <point x="740" y="751"/>
    </contour>
    <contour>
      <point x="537" y="635" type="qcurve"/>
      <point x="481" y="769"/>
      <point x="389" y="868"/>
      <point x="328" y="868" type="qcurve"/>
      <point x="257" y="868"/>
      <point x="166" y="735"/>
      <point x="166" y="629" type="qcurve"/>
      <point x="166" y="520"/>
      <point x="249" y="391"/>
      <point x="317" y="391" type="qcurve"/>
      <point x="384" y="391"/>
      <point x="490" y="509"/>
    </contour>
    <contour>
      <point x="616" y="764" type="qcurve"/>
      <point x="663" y="881"/>
      <point x="810" y="1008"/>
      <point x="901" y="1008" type="qcurve"/>
      <point x="1020" y="1008"/>
      <point x="1192" y="789"/>
      <point x="1192" y="629" type="qcurve"/>
      <point x="1192" y="462"/>
      <point x="1029" y="250"/>
      <point x="903" y="250" type="qcurve"/>
      <point x="820" y="250"/>
      <point x="692" y="350"/>
      <point x="614" y="481" type="qcurve"/>
      <point x="549" y="357"/>
      <point x="417" y="250"/>
      <point x="332" y="250" type="qcurve"/>
      <point x="207" y="250"/>
      <point x="41" y="464"/>
      <point x="41" y="629" type="qcurve"/>
      <point x="41" y="802"/>
      <point x="198" y="1008"/>
      <point x="330" y="1008" type="qcurve"/>
      <point x="424" y="1008"/>
      <point x="560" y="893"/>
    </contour>
  </outline>
</glyph>
<glyph name="x1" format="1">
  <advance width="1233"/>
  <outline>
    <contour>
      <point x="94" y="180" type="line" name="sh01"/>
      <point x="259" y="180" type="line" name="sh02"/>
      <point x="259" y="664" type="line"/>
      <point x="105" y="626" type="line"/>
      <point x="105" y="759" type="line" name="dh01"/>
      <point x="260" y="796" type="line" name="av01"/>
      <point x="402" y="796" type="line" name="dh02"/>
      <point x="402" y="180" type="line"/>
      <point x="567" y="180" type="line" name="dv02"/>
      <point x="567" y="50" type="line" name="dv01"/>
      <point x="94" y="50" type="line"/>
    </contour>
  </outline>
</glyph>
<glyph name="x2" format="1">
  <advance width="1233"/>
  <outline>
    <contour>
      <point x="217" y="180" type="qcurve" name="ih01"/>
      <point x="531" y="180" type="line" name="sh01"/>
      <point x="531" y="50" type="line" name="dv01"/>
      <point x="57" y="50" type="line"/>
      <point x="57" y="176" type="line"/>
      <point x="137" y="261" type="line"/>
      <point x="280" y="412"/>
      <point x="310" y="447" type="qcurve"/>
      <point x="348" y="490"/>
      <point x="381" y="557"/>
      <point x="381" y="589" type="qcurve" name="sh02"/>
      <point x="381" y="639"/>
      <point x="320" y="694"/>
      <point x="265" y="694" type="qcurve" name="dv02"/>
      <point x="225" y="694"/>
      <point x="127" y="662"/>
      <point x="73" y="632" type="qcurve" name="dh01"/>
      <point x="73" y="770" type="line"/>
      <point x="127" y="789"/>
      <point x="229" y="810"/>
      <point x="276" y="810" type="qcurve" name="dv03"/>
      <point x="395" y="810"/>
      <point x="530" y="699"/>
      <point x="530" y="604" type="qcurve" name="dh02"/>
      <point x="530" y="560"/>
      <point x="501" y="483"/>
      <point x="465" y="436" type="qcurve"/>
      <point x="438" y="402"/>
      <point x="319" y="283" type="qcurve"/>
      <point x="255" y="218"/>
    </contour>
  </outline>
</glyph>
<glyph name="x3" format="1">
  <advance width="1233"/>
  <outline>
    <contour>
      <point x="274" y="384" type="qcurve" name="dv05"/>
      <point x="195" y="384" type="line"/>
      <point x="195" y="514" type="line"/>
      <point x="274" y="514" type="line" name="dv06"/>
      <point x="329" y="514"/>
      <point x="390" y="557"/>
      <point x="390" y="597" type="qcurve"/>
      <point x="390" y="638"/>
      <point x="329" y="685"/>
      <point x="274" y="685" type="qcurve" name="dv03"/>
      <point x="232" y="685"/>
      <point x="136" y="664"/>
      <point x="85" y="644" type="qcurve" name="ih01"/>
      <point x="85" y="778" type="line"/>
      <point x="136" y="793"/>
      <point x="236" y="810"/>
      <point x="282" y="810" type="qcurve" name="dv04"/>
      <point x="400" y="810"/>
      <point x="532" y="707"/>
      <point x="532" y="616" type="qcurve"/>
      <point x="532" y="550"/>
      <point x="456" y="465"/>
      <point x="386" y="452" type="qcurve" name="ih02"/>
      <point x="466" y="438"/>
      <point x="550" y="339"/>
      <point x="550" y="258" type="qcurve" name="dh02"/>
      <point x="550" y="149"/>
      <point x="411" y="35"/>
      <point x="278" y="35" type="qcurve" name="dv01"/>
      <point x="222" y="35"/>
      <point x="112" y="54"/>
      <point x="62" y="72" type="qcurve"/>
      <point x="62" y="209" type="line" name="dh01"/>
      <point x="109" y="186"/>
      <point x="218" y="161"/>
      <point x="278" y="161" type="qcurve" name="dv02"/>
      <point x="338" y="161"/>
      <point x="408" y="217"/>
      <point x="408" y="264" type="qcurve" name="sh01"/>
      <point x="408" y="321"/>
      <point x="338" y="384"/>
    </contour>
  </outline>
</glyph>
<glyph name="x4" format="1">
  <advance width="1233"/>
  <outline>
    <contour>
      <point x="347" y="632" type="line" name="sh01"/>
      <point x="158" y="337" type="line" name="ih01"/>
      <point x="347" y="337" type="line" name="hr01"/>
    </contour>
    <contour>
      <point x="334" y="796" type="line"/>
      <point x="488" y="796" type="line" name="sh02"/>
      <point x="488" y="337" type="line"/>
      <point x="570" y="337" type="line" name="sv01"/>
      <point x="570" y="211" type="line" name="sv03"/>
      <point x="488" y="211" type="line" name="dh02"/>
      <point x="488" y="50" type="line" name="av01"/>
      <point x="347" y="50" type="line" name="sh03"/>
      <point x="347" y="211" type="line" name="sv02"/>
      <point x="51" y="211" type="line" name="dh01"/>
      <point x="51" y="354" type="line"/>
    </contour>
  </outline>
</glyph>
<glyph name="x6" format="1">
  <advance width="1233"/>
  <outline>
    <contour>
      <point x="321" y="424" type="qcurve" name="dv05"/>
      <point x="273" y="424"/>
      <point x="223" y="354"/>
      <point x="223" y="288" type="qcurve" name="sh02"/>
      <point x="223" y="223"/>
      <point x="273" y="153"/>
      <point x="321" y="153" type="qcurve" name="dv02"/>
      <point x="369" y="153"/>
      <point x="421" y="223"/>
      <point x="421" y="288" type="qcurve" name="ah01"/>
      <point x="421" y="354"/>
      <point x="369" y="424"/>
    </contour>
    <contour>
      <point x="515" y="779" type="qcurve"/>
      <point x="515" y="645" type="line" name="ih01"/>
      <point x="475" y="667"/>
      <point x="403" y="690"/>
      <point x="369" y="690" type="qcurve" name="dv03"/>
      <point x="289" y="690"/>
      <point x="206" y="582"/>
      <point x="204" y="477" type="qcurve" name="ih02"/>
      <point x="227" y="510"/>
      <point x="300" y="542"/>
      <point x="350" y="542" type="qcurve" name="dv06"/>
      <point x="451" y="542"/>
      <point x="561" y="415"/>
      <point x="561" y="298" type="qcurve" name="sh03"/>
      <point x="561" y="172"/>
      <point x="437" y="34"/>
      <point x="325" y="34" type="qcurve" name="dv01"/>
      <point x="189" y="34"/>
      <point x="65" y="217"/>
      <point x="65" y="421" type="qcurve" name="sh01"/>
      <point x="65" y="615"/>
      <point x="216" y="809"/>
      <point x="367" y="809" type="qcurve" name="dv04"/>
      <point x="402" y="809"/>
      <point x="477" y="794"/>
    </contour>
  </outline>
</glyph>
<glyph name="x7" format="1">
  <advance width="1233"/>
  <outline>
    <contour>
      <point x="67" y="796" type="line" name="hr00"/>
      <point x="539" y="796" type="line" name="dv02"/>
      <point x="539" y="692" type="line"/>
      <point x="286" y="50" type="line" name="av01"/>
      <point x="136" y="50" type="line"/>
      <point x="379" y="666" type="line" name="dv01"/>
      <point x="67" y="666" type="line"/>
    </contour>
  </outline>
</glyph>
<glyph name="xa" format="1">
  <advance width="1233"/>
  <outline>
    <contour>
      <point x="308" y="661" type="line" name="iv01"/>
      <point x="238" y="356" type="line"/>
      <point x="378" y="356" type="line"/>
    </contour>
    <contour>
      <point x="218" y="796" type="line"/>
      <point x="398" y="796" type="line" name="dv02"/>
      <point x="600" y="50" type="line" name="av01"/>
      <point x="452" y="50" type="line"/>
      <point x="406" y="234" type="line" name="dv01"/>
      <point x="209" y="234" type="line"/>
      <point x="164" y="50" type="line" name="av02"/>
      <point x="16" y="50" type="line"/>
    </contour>
  </outline>
</glyph>
<glyph name="xg" format="1">
  <advance width="1233"/>
  <outline>
    <contour>
      <point x="436" y="185" type="qcurve"/>
      <point x="436" y="327" type="line"/>
      <point x="335" y="327" type="line"/>
      <point x="335" y="451" type="line" name="dv02"/>
      <point x="565" y="451" type="line" name="sh01"/>
      <point x="565" y="109" type="line"/>
      <point x="522" y="73"/>
      <point x="420" y="35"/>
      <point x="361" y="35" type="qcurve" name="dv01"/>
      <point x="216" y="35"/>
      <point x="58" y="237"/>
      <point x="58" y="422" type="qcurve" name="dh01"/>
      <point x="58" y="611"/>
      <point x="218" y="810"/>
      <point x="368" y="810" type="qcurve" name="dv04"/>
      <point x="413" y="810"/>
      <point x="500" y="784"/>
      <point x="538" y="760" type="qcurve" name="hr02"/>
      <point x="538" y="597" type="line" name="sh02"/>
      <point x="507" y="637"/>
      <point x="427" y="677"/>
      <point x="379" y="677" type="qcurve" name="dv03"/>
      <point x="295" y="677"/>
      <point x="212" y="551"/>
      <point x="212" y="422" type="qcurve" name="dh02"/>
      <point x="212" y="298"/>
      <point x="292" y="168"/>
      <point x="368" y="168" type="qcurve" name="sv01"/>
      <point x="391" y="168"/>
      <point x="425" y="176"/>
    </contour>
  </outline>
</glyph>
<glyph name="xi" format="1">
  <advance width="1233"/>
  <outline>
    <contour>
      <point x="86" y="666" type="line" name="dh01"/>
      <point x="86" y="796" type="line" name="dv02"/>
      <point x="530" y="796" type="line" name="hr01"/>
      <point x="530" y="666" type="line" name="dh02"/>
      <point x="382" y="666" type="line"/>
      <point x="382" y="180" type="line" name="sh01"/>
      <point x="530" y="180" type="line" name="sh02"/>
      <point x="530" y="50" type="line" name="dv01"/>
      <point x="86" y="50" type="line" name="sh03"/>
      <point x="86" y="180" type="line" name="sv01"/>
      <point x="234" y="180" type="line" name="ih01"/>
      <point x="234" y="666" type="line"/>
    </contour>
  </outline>
</glyph>
<glyph name="xj" format="1">
  <advance width="1233"/>
  <outline>
    <contour>
      <point x="54" y="87" type="qcurve"/>
      <point x="54" y="258" type="line" name="dh01"/>
      <point x="97" y="214"/>
      <point x="195" y="168"/>
      <point x="244" y="168" type="qcurve" name="dv02"/>
      <point x="302" y="168"/>
      <point x="356" y="226"/>
      <point x="356" y="289" type="qcurve" name="sh01"/>
      <point x="356" y="666" type="line" name="dv03"/>
      <point x="176" y="666" type="line"/>
      <point x="176" y="796" type="line" name="hr01"/>
      <point x="504" y="796" type="line" name="dv04"/>
      <point x="504" y="289" type="line" name="dh02"/>
      <point x="504" y="153"/>
      <point x="389" y="35"/>
      <point x="258" y="35" type="qcurve" name="dv01"/>
      <point x="210" y="35"/>
      <point x="107" y="61"/>
    </contour>
  </outline>
</glyph>
<glyph name="xl" format="1">
  <advance width="1233"/>
  <outline>
    <contour>
      <point x="112" y="50" type="line" name="dh01"/>
      <point x="112" y="796" type="line" name="av01"/>
      <point x="260" y="796" type="line"/>
      <point x="260" y="180" type="line" name="dh02"/>
      <point x="575" y="180" type="line"/>
      <point x="575" y="50" type="line"/>
    </contour>
  </outline>
</glyph>
<glyph name="xm" format="1">
  <advance width="1233"/>
  <outline>
    <contour>
      <point x="43" y="796" type="line" name="sh01"/>
      <point x="219" y="796" type="line"/>
      <point x="308" y="469" type="line" name="ih01"/>
      <point x="396" y="796" type="line" name="av01"/>
      <point x="573" y="796" type="line"/>
      <point x="573" y="50" type="line" name="sh02"/>
      <point x="446" y="50" type="line" name="ah01"/>
      <point x="446" y="648" type="line" name="iv01"/>
      <point x="367" y="321" type="line"/>
      <point x="250" y="321" type="line"/>
      <point x="170" y="648" type="line" name="sh03"/>
      <point x="170" y="50" type="line" name="av02"/>
      <point x="43" y="50" type="line"/>
    </contour>
  </outline>
</glyph>
<glyph name="xv" format="1">
  <advance width="1233"/>
  <outline>
    <contour>
      <point x="308" y="173" type="line" name="iv01"/>
      <point x="439" y="796" type="line" name="av02"/>
      <point x="588" y="796" type="line"/>
      <point x="410" y="50" type="line" name="av01"/>
      <point x="206" y="50" type="line"/>
      <point x="28" y="796" type="line" name="av03"/>
      <point x="177" y="796" type="line"/>
    </contour>
  </outline>
</glyph>
<glyph name="xx" format="1">
  <advance width="1233"/>
  <outline>
    <contour>
      <point x="603" y="50" type="line" name="av01"/>
      <point x="450" y="50" type="line"/>
      <point x="308" y="297" type="line" name="iv01"/>
      <point x="166" y="50" type="line" name="av02"/>
      <point x="13" y="50" type="line"/>
      <point x="232" y="429" type="line"/>
      <point x="19" y="796" type="line" name="av03"/>
      <point x="172" y="796" type="line"/>
      <point x="308" y="559" type="line" name="iv02"/>
      <point x="444" y="796" type="line" name="av04"/>
      <point x="597" y="796" type="line"/>
      <point x="385" y="429" type="line"/>
    </contour>
  </outline>
</glyph>
<glyph name="xy" format="1">
  <advance width="1233"/>
  <outline>
    <contour>
      <point x="4" y="796" type="line" name="av01"/>
      <point x="163" y="796" type="line"/>
      <point x="308" y="496" type="line" name="ih01"/>
      <point x="453" y="796" type="line" name="av02"/>
      <point x="612" y="796" type="line"/>
      <point x="382" y="344" type="line"/>
      <point x="382" y="50" type="line" name="dh02"/>
      <point x="234" y="50" type="line" name="dh01"/>
      <point x="234" y="344" type="line"/>
    </contour>
  </outline>
</glyph>
